<?xml version="1.0" encoding="UTF-8"?> <svg xmlns="http://www.w3.org/2000/svg" xmlns:xlink="http://www.w3.org/1999/xlink" xmlns:xodm="http://www.corel.com/coreldraw/odm/2003" xml:space="preserve" width="2399px" height="708px" version="1.1" shape-rendering="geometricPrecision" text-rendering="geometricPrecision" image-rendering="optimizeQuality" fill-rule="evenodd" clip-rule="evenodd" viewBox="0 0 2316.86 684.04"> <g id="Camada_x0020_1"> <metadata id="CorelCorpID_0Corel-Layer"></metadata> <path fill="#0C3273" d="M1898.94 504.27l109.42 0 17.91 -36.98c2.1,-5.02 4.77,-9.28 5.82,-13.76l150.3 0 23.73 50.74 110.74 0c-0.66,-7.77 -14.12,-29.11 -18.04,-36.85 -6.52,-12.88 -12.54,-24.8 -18.88,-37.31 -12.67,-25.02 -25.62,-49.26 -38.23,-74.15 -6.15,-12.15 -12.3,-24.29 -18.46,-36.43 -9.84,-19.42 -54.81,-103.94 -56.68,-111.88l-116.02 0 -84.8 166.1c-8.83,17.45 -65.36,124.39 -66.81,130.52zm209.62 -208.16c1.81,7.69 26.05,55.22 30.7,65.98 2.87,6.64 8.85,16.92 10.17,22.49l-83.06 0c0.49,-5.77 7.1,-16.44 9.79,-22.87 3.37,-8.06 28.87,-63.05 32.4,-65.6zm-502.29 204.26c0,3 0.92,3.9 3.96,3.9l98.87 0c3.04,0 3.96,-0.9 3.96,-3.9l0 -94.98 176.65 0c3.04,0 3.96,-0.9 3.96,-3.9l0 -68.95c0,-3 -0.92,-3.9 -3.96,-3.9l-176.65 0 0 -42.94 214.89 0c3.03,0 3.95,-0.9 3.95,-3.9l0 -74.15 -325.63 0 0 292.72zm-333.54 3.9l293.99 0c3.04,0 3.96,-0.9 3.96,-3.9l0 -72.86c0,-3 -0.92,-3.9 -3.96,-3.9l-188.52 0 0 -215.96 -105.47 0 0 296.62zm-444.28 0l109.43 0 23.73 -50.74 150.29 0 23.73 50.74 110.74 0c-1.77,-7.5 -66.18,-130.62 -75.59,-149.18l-57.12 -111.45c-3.63,-7.17 -6.59,-11.61 -10.12,-18.64 -3.47,-6.92 -7.06,-17.35 -11.42,-17.35l-109.42 0c-4.45,0 -7.31,9.21 -10.99,16.47l-29 55.95c-6.56,12.94 -12.34,24.35 -18.9,37.29l-19.35 36.84c-12.97,25.23 -25.2,49.67 -37.77,74.61 -3.25,6.45 -6.31,11.08 -9.68,17.78 -3.45,6.88 -6.18,12.22 -9.66,19.08 -4.31,8.51 -17.14,31.16 -18.9,38.6zm206.98 -206.86l2.64 0c1.05,4.45 2.8,6.82 4.85,10.83l36.02 76.34 -84.37 0c3.75,-7.01 6.3,-13.83 10.09,-21.26 3.95,-7.72 6.61,-14.41 10.55,-22.12 3.81,-7.44 6.31,-13.82 10.11,-21.24 2.15,-4.18 3.22,-6.28 5.02,-10.66 1.66,-4 4.03,-7.4 5.09,-11.89zm-480.15 260.89c-5.41,-1.45 -11.68,-7.54 -16.25,-10.91l-80.04 -57.78c-4.13,-3.09 -27.96,-21.65 -32.47,-22.85l0 76.45c2.76,0.74 4,2.19 6.18,3.88 2.41,1.85 3.86,2.71 6.47,4.59l98.16 70.85c4.24,3.13 7.89,5.71 12.19,8.93 8.36,6.23 16.23,11.4 24.59,17.66 3.74,2.8 44.42,33.55 49.57,34.92 -2.49,-10.69 -22.02,-59.6 -26.27,-71.3l-76.04 -205.63c-1.37,-3.46 -2.46,-6.1 -3.31,-9.76 3.19,-4.35 118.76,-86.34 136.38,-99.01l47.85 -34.64c6.68,-5.05 31.12,-20.9 34.06,-25.29l-277.64 0c-1.02,-4.4 -3.71,-9.97 -5.41,-14.71 -19.68,-55.18 -40.97,-109.59 -60.87,-164.47 -3.66,-10.11 -7.3,-20.23 -11.18,-30.06 -1.95,-4.94 -7.98,-26.17 -12.07,-29.17 -2.21,9.5 -48.46,132.07 -54.75,148.45 -4,10.43 -7.21,19.65 -11.22,30.03l-16.22 44.13c-1.6,4.08 -4.98,11.63 -5.33,15.8l-281.66 0c2.72,4.05 8.05,6.54 12.35,9.78l118.42 82.77c2.4,1.57 3.95,2.77 6.46,4.6 2.51,1.82 4.37,2.86 6.62,4.45 4.51,3.21 8.92,6.03 13.66,9.48 4.63,3.37 8.29,5.84 12.92,9.21 2.5,1.82 4.36,2.85 6.61,4.45 2.28,1.61 3.75,2.85 6.44,4.63 4.8,3.17 8.31,5.73 13.09,9.04 4.89,3.38 8.93,6.29 13.67,9.46 1.95,-8.36 12.78,-35.06 16.53,-44.84 1.92,-5.01 4.45,-10.57 5.6,-15.51 -5.7,-3.83 -11.28,-8.04 -16.95,-12.23l-42.12 -30.31c-3.23,-2.41 -6.3,-3.73 -8.33,-6.76l101.6 0c-2.46,10.59 -7.37,21.76 -11.35,31.9l-36.22 97.58c-5.75,14.69 -10.35,28.58 -16.09,43.25 -2.86,7.29 -5.26,14.1 -7.87,21.3 -2.54,6.99 -5.26,14.29 -7.81,21.37 -5.2,14.48 -10.93,28.98 -16.1,43.25l-23.88 64.65c-1.38,3.98 -2.58,7.04 -4.11,10.97 -1.5,3.82 -2.61,7.54 -4.32,10.77 3.88,-0.9 48.39,-32.65 53.37,-37.17 2.87,-2.61 1.01,0.34 2.65,-4.39 4.25,-12.3 8.31,-23.2 12.96,-35.32l26.43 -71.14c4.54,-12.18 9.02,-23.87 13.36,-35.94l12.95 -35.33c18.64,-47.01 34.63,-95.15 52.74,-142.42 4.72,-12.32 8.56,-23.71 13.36,-35.93 4.72,-12.02 8.36,-23.19 13.07,-35.2l26.34 -71.25c2.22,-6.13 4.32,-11.11 6.52,-17.62 1.45,-4.31 4.34,-15.03 7.68,-17.47 0.76,9.21 7.35,20.88 10.44,29.79 17.27,49.8 36.98,98.75 54.82,148.39l32.94 88.77c1.89,5.29 3.72,9.53 5.53,14.58 1.86,5.17 3.48,10.05 5.62,15.51l32.91 88.81c3.97,10.36 7.25,19.67 11.22,30.03 2.58,6.74 21.03,53.73 21.55,59.93zm-82.49 -281.67l177.05 0c-1.1,0.96 0.36,-0.16 -1.66,1.37l-67.76 48.92c-11.76,8.3 -23.36,16.68 -35.05,25.31 -5.98,4.43 -11.5,8.13 -17.53,12.64 -3.16,2.37 -5.83,4.09 -8.77,6.32 -3.25,2.46 -5.26,4.03 -9.06,6.04l-37.22 -100.6zm-357.11 407.41c5.77,-1.34 52.48,-36 58.93,-40.66l38.8 -27.59c6.53,-4.82 12.53,-9.12 19.37,-13.83 3.38,-2.34 6.12,-4.29 9.37,-6.72 3.57,-2.68 6.5,-4.38 10.06,-7.05 28.44,-21.33 67.47,-48.38 96.86,-69.12l68.2 -48.49c3.94,-2.69 5.95,-4.56 10.25,-6.84l0 -25.15 -80.89 57.92c-7.01,5.04 -13.15,9.12 -19.98,14.23l-162.1 116.54c-7.16,5.18 -13.33,9.82 -20.5,14.71 -3.48,2.37 -6.54,4.56 -9.98,7.13 -10.51,7.83 -6.15,3.67 -13.36,21.84 -1.73,4.38 -2.9,9.07 -5.03,13.08z"></path> <line fill="#0C3273" x1="472.79" y1="276.63" x2="555.28" y2="558.3"></line> </g> </svg> 